<svg width="456" height="109" viewBox="0 0 456 109" fill="none" xmlns="http://www.w3.org/2000/svg">
<path fill-rule="evenodd" clip-rule="evenodd" d="M8.17348 15.2113L8.17475 15.2026C8.85391 10.5634 11.3315 6.38083 15.0686 3.56497C18.8048 0.749858 23.4976 -0.471412 28.1265 0.166823C156.117 17.7005 285.889 17.7007 413.879 0.167391C418.509 -0.47475 423.204 0.746086 426.941 3.56362C430.679 6.38202 433.154 10.5693 433.826 15.2115L433.828 15.2199L441.816 70.9414C442.15 73.2418 442.028 75.586 441.456 77.8389C440.885 80.0919 439.874 82.209 438.484 84.0686C437.093 85.9282 435.35 87.4935 433.354 88.6743C431.357 89.855 429.148 90.628 426.854 90.9485L426.841 90.9502C290.254 109.726 151.755 109.726 15.1688 90.9502L15.1612 90.9492C12.8647 90.6304 10.6539 89.8587 8.65622 88.6787C6.65846 87.4987 4.91323 85.9337 3.52107 84.074C2.12892 82.2142 1.11735 80.0963 0.544646 77.8426C-0.0275296 75.5909 -0.15037 73.2479 0.183162 70.9485C0.183472 70.9464 0.183782 70.9442 0.184092 70.9421L8.17348 15.2113Z" fill="url(#paint0_linear_1_549)"/>
<defs>
<linearGradient id="paint0_linear_1_549" x1="221" y1="-7.494e-08" x2="221" y2="73.3046" gradientUnits="userSpaceOnUse">
<stop stop-color="#F0F1FF"/>
<stop offset="1" stop-color="#F0F1FF" stop-opacity="0"/>
</linearGradient>
</defs>
</svg>
